<mxfile host="app.diagrams.net" modified="2024-01-29T12:13:55.403Z" agent="Mozilla/5.0 (Windows NT 10.0; Win64; x64) AppleWebKit/537.36 (KHTML, like Gecko) Chrome/121.0.0.0 Safari/537.36" etag="Su1432dGaTMMAsWgPnHp" version="23.0.2" type="github">
  <diagram id="07fea595-8f29-1299-0266-81d95cde20df" name="Page-1">
    <mxGraphModel dx="4250" dy="1029" grid="1" gridSize="10" guides="1" tooltips="1" connect="1" arrows="1" fold="1" page="1" pageScale="1" pageWidth="1169" pageHeight="827" background="none" math="0" shadow="0">
      <root>
        <mxCell id="0" />
        <mxCell id="1" parent="0" />
        <mxCell id="698" value="" style="rounded=0;whiteSpace=wrap;html=1;shadow=0;labelBackgroundColor=none;strokeColor=none;strokeWidth=3;fillColor=#e8edf0;fontSize=60;fontColor=#2F5B7C;align=left;" parent="1" vertex="1">
          <mxGeometry x="-2285" y="30" width="2250" height="1598" as="geometry" />
        </mxCell>
        <mxCell id="700" value="&lt;font&gt;&lt;font style=&quot;font-size: 26px&quot;&gt;1. Idea&lt;/font&gt;&lt;br&gt;&lt;/font&gt;&lt;font style=&quot;font-size: 12px&quot;&gt;&lt;br style=&quot;font-size: 12px&quot;&gt;&lt;font style=&quot;font-size: 12px&quot;&gt;&lt;br&gt;&lt;/font&gt;&lt;/font&gt;&lt;div style=&quot;font-size: 12px&quot;&gt;&lt;br style=&quot;font-size: 12px&quot;&gt;&lt;/div&gt;" style="rounded=0;whiteSpace=wrap;html=1;shadow=0;labelBackgroundColor=none;strokeColor=#e8edf0;strokeWidth=5;fillColor=#ffffff;fontSize=12;fontColor=#2F5B7C;align=left;verticalAlign=top;spacing=30;" parent="1" vertex="1">
          <mxGeometry x="-2210" y="220" width="690" height="460" as="geometry" />
        </mxCell>
        <mxCell id="701" value="&lt;span style=&quot;font-size: 26px;&quot;&gt;2. Prioridade&lt;br&gt;&lt;/span&gt;&lt;br&gt;384&lt;br&gt;Impacto: 8&lt;br&gt;Confiança:&amp;nbsp;&lt;br&gt;Facilidade:8" style="rounded=0;whiteSpace=wrap;html=1;shadow=0;labelBackgroundColor=none;strokeColor=#e8edf0;strokeWidth=5;fillColor=#ffffff;fontSize=12;fontColor=#2F5B7C;align=left;verticalAlign=top;spacing=30;" parent="1" vertex="1">
          <mxGeometry x="-1510" y="230" width="790" height="450" as="geometry" />
        </mxCell>
        <mxCell id="702" value="&lt;div&gt;&lt;span style=&quot;font-size: 26px;&quot;&gt;4.Suposições&lt;/span&gt;&lt;/div&gt;" style="rounded=0;whiteSpace=wrap;html=1;shadow=0;labelBackgroundColor=none;strokeColor=#e8edf0;strokeWidth=5;fillColor=#ffffff;fontSize=12;fontColor=#2F5B7C;align=left;verticalAlign=top;spacing=30;" parent="1" vertex="1">
          <mxGeometry x="-2210" y="670" width="2100" height="450" as="geometry" />
        </mxCell>
        <mxCell id="704" value="&lt;div&gt;&lt;span style=&quot;font-size: 26px;&quot;&gt;3. Alvos externos&lt;/span&gt;&lt;/div&gt;" style="rounded=0;whiteSpace=wrap;html=1;shadow=0;labelBackgroundColor=none;strokeColor=#e8edf0;strokeWidth=5;fillColor=#ffffff;fontSize=12;fontColor=#2F5B7C;align=left;verticalAlign=top;spacing=30;" parent="1" vertex="1">
          <mxGeometry x="-710" y="230" width="600" height="440" as="geometry" />
        </mxCell>
        <mxCell id="706" value="&lt;div style=&quot;font-size: 26px&quot;&gt;5. Loop dos experimentos&lt;/div&gt;" style="rounded=0;whiteSpace=wrap;html=1;shadow=0;labelBackgroundColor=none;strokeColor=#e8edf0;strokeWidth=5;fillColor=#ffffff;fontSize=12;fontColor=#2F5B7C;align=left;verticalAlign=top;spacing=30;" parent="1" vertex="1">
          <mxGeometry x="-2210" y="1120" width="2100" height="330" as="geometry" />
        </mxCell>
        <mxCell id="708" value="The Business Model Canvas&lt;br&gt;" style="text;html=1;resizable=0;points=[];autosize=1;align=left;verticalAlign=top;spacingTop=-4;fontSize=60;fontColor=#2F5B7C;" parent="1" vertex="1">
          <mxGeometry x="-2210" y="110" width="780" height="70" as="geometry" />
        </mxCell>
        <mxCell id="709" value="" style="html=1;verticalLabelPosition=bottom;labelBackgroundColor=#ffffff;verticalAlign=top;shadow=0;dashed=0;strokeWidth=4;shape=mxgraph.ios7.misc.check;strokeColor=#2F5B7C;fillColor=#ffffff;gradientColor=none;fontSize=12;fontColor=#2F5B7C;align=left;" parent="1" vertex="1">
          <mxGeometry x="-950" y="243.5" width="20" height="16" as="geometry" />
        </mxCell>
        <mxCell id="717" value="" style="shape=image;html=1;verticalAlign=top;verticalLabelPosition=bottom;labelBackgroundColor=#ffffff;imageAspect=0;aspect=fixed;image=https://cdn4.iconfinder.com/data/icons/evil-icons-user-interface/64/price-128.png;shadow=0;strokeColor=#e8edf0;strokeWidth=3;fillColor=#2F5B7C;gradientColor=none;fontSize=10;fontColor=#2F5B7C;align=left;" parent="1" vertex="1">
          <mxGeometry x="-570" y="1150" width="58" height="58" as="geometry" />
        </mxCell>
        <mxCell id="718" value="" style="dashed=0;html=1;shape=mxgraph.aws3.checklist_cost;fillColor=#2F5B7C;gradientColor=none;shadow=0;labelBackgroundColor=none;strokeColor=none;strokeWidth=3;fontSize=10;fontColor=#2F5B7C;align=left;" parent="1" vertex="1">
          <mxGeometry x="-1877.5" y="700" width="67.5" height="75" as="geometry" />
        </mxCell>
        <mxCell id="719" value="" style="shadow=0;dashed=0;html=1;strokeColor=none;fillColor=#2F5B7C;labelPosition=center;verticalLabelPosition=bottom;verticalAlign=top;outlineConnect=0;shape=mxgraph.office.concepts.link;labelBackgroundColor=none;fontSize=10;fontColor=#000000;align=left;" parent="1" vertex="1">
          <mxGeometry x="-1871" y="241" width="61" height="21" as="geometry" />
        </mxCell>
        <mxCell id="720" value="" style="group" parent="1" vertex="1" connectable="0">
          <mxGeometry x="-203.5" y="245" width="69" height="50" as="geometry" />
        </mxCell>
        <mxCell id="721" value="" style="shadow=0;dashed=0;html=1;strokeColor=#FFFFFF;labelPosition=center;verticalLabelPosition=bottom;verticalAlign=top;outlineConnect=0;shape=mxgraph.office.users.user;fillColor=#2F5B7C;labelBackgroundColor=none;fontSize=10;fontColor=#000000;align=left;strokeWidth=2;" parent="720" vertex="1">
          <mxGeometry x="31" y="-5" width="46" height="50" as="geometry" />
        </mxCell>
        <mxCell id="722" value="" style="shadow=0;dashed=0;html=1;strokeColor=#FFFFFF;labelPosition=center;verticalLabelPosition=bottom;verticalAlign=top;outlineConnect=0;shape=mxgraph.office.users.user;fillColor=#2F5B7C;labelBackgroundColor=none;fontSize=10;fontColor=#000000;align=left;strokeWidth=2;" parent="720" vertex="1">
          <mxGeometry width="46" height="50" as="geometry" />
        </mxCell>
        <mxCell id="RV-PYbP-iU8af8nAOI3y-725" value="A. Desejável" style="rounded=1;whiteSpace=wrap;html=1;" vertex="1" parent="1">
          <mxGeometry x="-2060" y="1260" width="189" height="50" as="geometry" />
        </mxCell>
        <mxCell id="RV-PYbP-iU8af8nAOI3y-726" value="b. Usabilidade" style="rounded=1;whiteSpace=wrap;html=1;" vertex="1" parent="1">
          <mxGeometry x="-2060" y="1310" width="190" height="50" as="geometry" />
        </mxCell>
        <mxCell id="RV-PYbP-iU8af8nAOI3y-727" value="C. Desejável, cionveniente" style="rounded=1;whiteSpace=wrap;html=1;" vertex="1" parent="1">
          <mxGeometry x="-2060" y="1360" width="190" height="60" as="geometry" />
        </mxCell>
        <mxCell id="RV-PYbP-iU8af8nAOI3y-728" value="5.1 Experimentos&lt;br&gt;quais experimentos quantitativos e qualitativos você pode executar baseado nas suas suposições?" style="rounded=1;whiteSpace=wrap;html=1;" vertex="1" parent="1">
          <mxGeometry x="-1850" y="1160" width="270" height="100" as="geometry" />
        </mxCell>
        <mxCell id="RV-PYbP-iU8af8nAOI3y-729" value="5.1 Métricaqs&lt;br&gt;Quais métricas você ira medir para determinar o sucesso do experimento?" style="rounded=1;whiteSpace=wrap;html=1;" vertex="1" parent="1">
          <mxGeometry x="-1570" y="1160" width="270" height="100" as="geometry" />
        </mxCell>
        <mxCell id="RV-PYbP-iU8af8nAOI3y-730" value="5.1 Métricaqs&lt;br&gt;Quias métricas você ira medir para determinar o sucesso do experimento?&lt;br&gt;Como interpretar os resultados?" style="rounded=1;whiteSpace=wrap;html=1;" vertex="1" parent="1">
          <mxGeometry x="-1295" y="1160" width="270" height="100" as="geometry" />
        </mxCell>
        <mxCell id="RV-PYbP-iU8af8nAOI3y-731" value="5.4 O que vem a seguir?&lt;br&gt;Baseado nos resultados, qual próximo experimento para ser validado?" style="rounded=1;whiteSpace=wrap;html=1;" vertex="1" parent="1">
          <mxGeometry x="-1025" y="1160" width="270" height="100" as="geometry" />
        </mxCell>
        <mxCell id="RV-PYbP-iU8af8nAOI3y-732" value="A. Desejável" style="rounded=1;whiteSpace=wrap;html=1;" vertex="1" parent="1">
          <mxGeometry x="-2060" y="1260" width="189" height="50" as="geometry" />
        </mxCell>
        <mxCell id="RV-PYbP-iU8af8nAOI3y-733" value="Wizard of Oz Mvp" style="rounded=1;whiteSpace=wrap;html=1;" vertex="1" parent="1">
          <mxGeometry x="-1850" y="1270" width="270" height="50" as="geometry" />
        </mxCell>
        <mxCell id="RV-PYbP-iU8af8nAOI3y-734" value="" style="rounded=1;whiteSpace=wrap;html=1;" vertex="1" parent="1">
          <mxGeometry x="-1570" y="1270" width="270" height="50" as="geometry" />
        </mxCell>
        <mxCell id="RV-PYbP-iU8af8nAOI3y-735" value="Wizard of Oz Mvp" style="rounded=1;whiteSpace=wrap;html=1;" vertex="1" parent="1">
          <mxGeometry x="-1850" y="1320" width="270" height="50" as="geometry" />
        </mxCell>
        <mxCell id="RV-PYbP-iU8af8nAOI3y-736" value="Wizard of Oz Mvp" style="rounded=1;whiteSpace=wrap;html=1;" vertex="1" parent="1">
          <mxGeometry x="-1850" y="1370" width="270" height="50" as="geometry" />
        </mxCell>
        <mxCell id="RV-PYbP-iU8af8nAOI3y-737" value="Wizard of Oz Mvp" style="rounded=1;whiteSpace=wrap;html=1;" vertex="1" parent="1">
          <mxGeometry x="-1570" y="1320" width="270" height="50" as="geometry" />
        </mxCell>
        <mxCell id="RV-PYbP-iU8af8nAOI3y-739" value="" style="rounded=1;whiteSpace=wrap;html=1;" vertex="1" parent="1">
          <mxGeometry x="-1570" y="1370" width="270" height="50" as="geometry" />
        </mxCell>
        <mxCell id="RV-PYbP-iU8af8nAOI3y-740" value="" style="rounded=1;whiteSpace=wrap;html=1;" vertex="1" parent="1">
          <mxGeometry x="-1290" y="1370" width="270" height="50" as="geometry" />
        </mxCell>
        <mxCell id="RV-PYbP-iU8af8nAOI3y-741" value="" style="rounded=1;whiteSpace=wrap;html=1;" vertex="1" parent="1">
          <mxGeometry x="-1290" y="1320" width="270" height="50" as="geometry" />
        </mxCell>
        <mxCell id="RV-PYbP-iU8af8nAOI3y-742" value="" style="rounded=1;whiteSpace=wrap;html=1;" vertex="1" parent="1">
          <mxGeometry x="-1290" y="1270" width="270" height="50" as="geometry" />
        </mxCell>
        <mxCell id="RV-PYbP-iU8af8nAOI3y-744" value="" style="rounded=1;whiteSpace=wrap;html=1;" vertex="1" parent="1">
          <mxGeometry x="-1020" y="1370" width="270" height="50" as="geometry" />
        </mxCell>
        <mxCell id="RV-PYbP-iU8af8nAOI3y-745" value="" style="rounded=1;whiteSpace=wrap;html=1;" vertex="1" parent="1">
          <mxGeometry x="-1020" y="1320" width="270" height="50" as="geometry" />
        </mxCell>
        <mxCell id="RV-PYbP-iU8af8nAOI3y-746" value="Melhor entendimento da&amp;nbsp; jornada do cliente" style="rounded=1;whiteSpace=wrap;html=1;" vertex="1" parent="1">
          <mxGeometry x="-1020" y="1270" width="270" height="50" as="geometry" />
        </mxCell>
      </root>
    </mxGraphModel>
  </diagram>
</mxfile>
